<svg width="49" height="37" viewBox="0 0 49 37" fill="none" xmlns="http://www.w3.org/2000/svg">
<path d="M43.4941 9.50006C43.5248 9.89811 43.5248 10.2962 43.5248 10.6943C43.5248 22.8352 33.5562 36.8243 15.3367 36.8243C9.72355 36.8243 4.50925 35.3173 0.123047 32.7016C0.920563 32.7868 1.6873 32.8153 2.5155 32.8153C7.14699 32.8153 11.4105 31.3652 14.8152 28.8915C10.4597 28.8062 6.80965 26.1619 5.55205 22.5225C6.16555 22.6077 6.77896 22.6646 7.42315 22.6646C8.31263 22.6646 9.2022 22.5508 10.0303 22.3519C5.49077 21.4988 2.08601 17.8026 2.08601 13.3386V13.2249C3.40488 13.9073 4.93864 14.3338 6.56417 14.3906C3.89565 12.7414 2.14738 9.92655 2.14738 6.74202C2.14738 5.03607 2.63805 3.47224 3.49694 2.10744C8.3739 7.68033 15.7047 11.3197 23.9249 11.7178C23.7715 11.0354 23.6795 10.3247 23.6795 9.61384C23.6795 4.55269 28.0964 0.429932 33.5867 0.429932C36.4393 0.429932 39.0157 1.53882 40.8255 3.33011C43.0645 2.93206 45.2116 2.16433 47.1134 1.11233C46.3771 3.24486 44.8129 5.03615 42.7578 6.1734C44.7516 5.97446 46.684 5.46255 48.4629 4.7518C47.1135 6.57144 45.4265 8.19207 43.4941 9.50006Z" fill="black"/>
</svg>
