<svg width="42" height="37" viewBox="0 0 42 37" fill="none" xmlns="http://www.w3.org/2000/svg">
<path d="M40.2795 6.12638C39.8071 3.88413 38.4154 2.11821 36.6483 1.51892C33.4453 0.429932 20.6017 0.429932 20.6017 0.429932C20.6017 0.429932 7.75818 0.429932 4.55512 1.51892C2.78802 2.1183 1.39628 3.88413 0.923915 6.12638C0.0656738 10.1906 0.0656738 18.6702 0.0656738 18.6702C0.0656738 18.6702 0.0656738 27.1498 0.923915 31.214C1.39628 33.4562 2.78802 35.1486 4.55512 35.7479C7.75818 36.8369 20.6017 36.8369 20.6017 36.8369C20.6017 36.8369 33.4452 36.8369 36.6483 35.7479C38.4154 35.1486 39.8071 33.4562 40.2795 31.214C41.1377 27.1498 41.1377 18.6702 41.1377 18.6702C41.1377 18.6702 41.1377 10.1906 40.2795 6.12638ZM16.4011 26.369V10.9713L27.1358 18.6704L16.4011 26.369Z" fill="black"/>
</svg>
