<svg width="339" height="51" viewBox="0 0 339 51" fill="none" xmlns="http://www.w3.org/2000/svg">
<rect y="0.985352" width="105.701" height="49.3711" rx="24.6856" fill="#171717"/>
<rect x="233.109" y="1.61426" width="105.701" height="49.3711" rx="24.6856" fill="#141313"/>
<path d="M320.187 16.1994L301.172 22.0822C299.857 22.4888 297.732 22.4888 296.432 22.0822L293.272 21.1046C291.958 20.698 291.958 20.0405 293.272 19.6382L306.751 15.4684L293.272 11.2985C291.958 10.8919 291.958 10.2344 293.272 9.83209L296.418 8.84585C297.732 8.43924 299.857 8.43924 301.158 8.84585L320.173 14.7287C321.502 15.1353 321.502 15.7928 320.187 16.1994Z" fill="#FFF9F9"/>
<path d="M54.4857 14.7287L73.4922 8.84585C74.8059 8.43924 76.9301 8.43924 78.2298 8.84585L81.3882 9.82344C82.7019 10.23 82.7019 10.8875 81.3882 11.2898L67.93 15.464L81.4022 19.6339C82.7159 20.0405 82.7159 20.698 81.4022 21.1003L78.2438 22.0822C76.9301 22.4888 74.8059 22.4888 73.5061 22.0822L54.4997 16.1994C53.172 15.7928 53.172 15.1353 54.4857 14.7287Z" fill="#F9F4F4"/>
</svg>
