<svg width="339" height="50" viewBox="0 0 339 50" fill="none" xmlns="http://www.w3.org/2000/svg">
<rect width="105.701" height="49.3711" rx="24.6856" fill="#171717"/>
<rect x="233.109" y="0.628906" width="105.701" height="49.3711" rx="24.6856" fill="#141313"/>
<path d="M320.187 15.214L301.172 21.0969C299.857 21.5035 297.732 21.5035 296.432 21.0969L293.272 20.1193C291.958 19.7127 291.958 19.0552 293.272 18.6529L306.751 14.483L293.272 10.3131C291.958 9.90651 291.958 9.24902 293.272 8.84674L296.418 7.8605C297.732 7.45389 299.857 7.45389 301.158 7.8605L320.173 13.7433C321.502 14.1499 321.502 14.8074 320.187 15.214Z" fill="#FFF9F9"/>
<path d="M54.4857 13.7433L73.4922 7.8605C74.8059 7.45389 76.9301 7.45389 78.2298 7.8605L81.3882 8.83809C82.7019 9.24469 82.7019 9.90218 81.3882 10.3045L67.93 14.4787L81.4022 18.6486C82.7159 19.0552 82.7159 19.7127 81.4022 20.1149L78.2438 21.0969C76.9301 21.5035 74.8059 21.5035 73.5061 21.0969L54.4997 15.214C53.172 14.8074 53.172 14.1499 54.4857 13.7433Z" fill="#F9F4F4"/>
</svg>
