<svg width="339" height="51" viewBox="0 0 339 51" fill="none" xmlns="http://www.w3.org/2000/svg">
<rect y="0.989258" width="105.701" height="49.3711" rx="24.6856" fill="#171717"/>
<rect x="233.109" y="1.61816" width="105.701" height="49.3711" rx="24.6856" fill="#141313"/>
<path d="M320.187 16.2033L301.172 22.0861C299.857 22.4927 297.732 22.4927 296.432 22.0861L293.272 21.1085C291.958 20.7019 291.958 20.0444 293.272 19.6421L306.751 15.4723L293.272 11.3024C291.958 10.8958 291.958 10.2383 293.272 9.83599L296.418 8.84976C297.732 8.44315 299.857 8.44315 301.158 8.84976L320.173 14.7326C321.502 15.1392 321.502 15.7967 320.187 16.2033Z" fill="#FFF9F9"/>
<path d="M54.4857 14.7326L73.4922 8.84976C74.8059 8.44315 76.9301 8.44315 78.2298 8.84976L81.3882 9.82734C82.7019 10.234 82.7019 10.8914 81.3882 11.2937L67.93 15.4679L81.4022 19.6378C82.7159 20.0444 82.7159 20.7019 81.4022 21.1042L78.2438 22.0861C76.9301 22.4927 74.8059 22.4927 73.5061 22.0861L54.4997 16.2033C53.172 15.7967 53.172 15.1392 54.4857 14.7326Z" fill="#F9F4F4"/>
</svg>
