<svg width="19" height="16" viewBox="0 0 19 16" fill="none" xmlns="http://www.w3.org/2000/svg">
<path opacity="0.5" d="M12.685 8.37458L17.7289 12.6204C18.0316 12.8752 18.1829 13.2149 18.1829 13.5545C18.1829 13.9367 18.0316 14.2763 17.7289 14.5311L16.6193 15.4652C16.2662 15.7199 15.8627 15.8473 15.4592 15.8473C15.0052 15.8473 14.6521 15.7199 14.3495 15.4652L9.30556 11.2193L4.26162 15.4652C3.95898 15.7199 3.55547 15.8473 3.15195 15.8473C2.698 15.8473 2.29448 15.7199 1.99184 15.4652L0.882177 14.5311C0.579541 14.2763 0.428223 13.9367 0.428223 13.5545C0.428223 13.2149 0.579541 12.8752 0.882177 12.6204L5.92612 8.37458L0.882177 4.12871C0.579541 3.87396 0.428223 3.57675 0.428223 3.19462C0.428223 2.85495 0.579541 2.51529 0.882177 2.21807L1.99184 1.28398C2.29448 1.02923 2.698 0.901855 3.15195 0.901855C3.55547 0.901855 3.95898 1.02923 4.26162 1.28398L9.30556 5.52985L14.3495 1.28398C14.6521 1.02923 15.0052 0.901855 15.4592 0.901855C15.8627 0.901855 16.2662 1.02923 16.6193 1.28398L17.7289 2.21807C18.0316 2.51529 18.1829 2.85495 18.1829 3.19462C18.1829 3.57675 18.0316 3.87396 17.7289 4.12871L12.685 8.37458Z" fill="#160202"/>
</svg>
