<svg width="19" height="16" viewBox="0 0 19 16" fill="none" xmlns="http://www.w3.org/2000/svg">
<path opacity="0.5" d="M12.685 8.37849L17.7289 12.6244C18.0316 12.8791 18.1829 13.2188 18.1829 13.5584C18.1829 13.9406 18.0316 14.2802 17.7289 14.535L16.6193 15.4691C16.2662 15.7238 15.8627 15.8512 15.4592 15.8512C15.0052 15.8512 14.6521 15.7238 14.3495 15.4691L9.30556 11.2232L4.26162 15.4691C3.95898 15.7238 3.55547 15.8512 3.15195 15.8512C2.698 15.8512 2.29448 15.7238 1.99184 15.4691L0.882177 14.535C0.579541 14.2802 0.428223 13.9406 0.428223 13.5584C0.428223 13.2188 0.579541 12.8791 0.882177 12.6244L5.92612 8.37849L0.882177 4.13262C0.579541 3.87787 0.428223 3.58066 0.428223 3.19853C0.428223 2.85886 0.579541 2.51919 0.882177 2.22198L1.99184 1.28789C2.29448 1.03314 2.698 0.905762 3.15195 0.905762C3.55547 0.905762 3.95898 1.03314 4.26162 1.28789L9.30556 5.53376L14.3495 1.28789C14.6521 1.03314 15.0052 0.905762 15.4592 0.905762C15.8627 0.905762 16.2662 1.03314 16.6193 1.28789L17.7289 2.22198C18.0316 2.51919 18.1829 2.85886 18.1829 3.19853C18.1829 3.58066 18.0316 3.87787 17.7289 4.13262L12.685 8.37849Z" fill="#160202"/>
</svg>
