<svg width="19" height="16" viewBox="0 0 19 16" fill="none" xmlns="http://www.w3.org/2000/svg">
<path opacity="0.5" d="M12.685 8.38923L17.7289 12.6351C18.0316 12.8898 18.1829 13.2295 18.1829 13.5692C18.1829 13.9513 18.0316 14.291 17.7289 14.5457L16.6193 15.4798C16.2662 15.7346 15.8627 15.862 15.4592 15.862C15.0052 15.862 14.6521 15.7346 14.3495 15.4798L9.30556 11.234L4.26162 15.4798C3.95898 15.7346 3.55547 15.862 3.15195 15.862C2.698 15.862 2.29448 15.7346 1.99184 15.4798L0.882177 14.5457C0.579541 14.291 0.428223 13.9513 0.428223 13.5692C0.428223 13.2295 0.579541 12.8898 0.882177 12.6351L5.92612 8.38923L0.882177 4.14336C0.579541 3.88861 0.428223 3.5914 0.428223 3.20927C0.428223 2.8696 0.579541 2.52993 0.882177 2.23272L1.99184 1.29863C2.29448 1.04388 2.698 0.916504 3.15195 0.916504C3.55547 0.916504 3.95898 1.04388 4.26162 1.29863L9.30556 5.5445L14.3495 1.29863C14.6521 1.04388 15.0052 0.916504 15.4592 0.916504C15.8627 0.916504 16.2662 1.04388 16.6193 1.29863L17.7289 2.23272C18.0316 2.52993 18.1829 2.8696 18.1829 3.20927C18.1829 3.5914 18.0316 3.88861 17.7289 4.14336L12.685 8.38923Z" fill="#160202"/>
</svg>
