<svg width="60" height="39" viewBox="0 0 60 39" fill="none" xmlns="http://www.w3.org/2000/svg">
<path d="M53.0246 0.0185547H6.76772C3.28531 0.0185547 0.459961 1.86297 0.459961 4.13633V34.3333C0.459961 36.6067 3.28531 38.4511 6.76772 38.4511H53.0246C56.507 38.4511 59.3324 36.6067 59.3324 34.3333V4.13633C59.3324 1.86297 56.507 0.0185547 53.0246 0.0185547ZM46.5986 13.6415C46.6249 13.8817 46.6249 14.1305 46.6249 14.3707C46.6249 21.8084 37.9517 30.3786 22.1035 30.3786C17.215 30.3786 12.6812 29.4521 8.87031 27.8564C9.56679 27.9079 10.237 27.925 10.9466 27.925C14.981 27.925 18.6868 27.0329 21.6435 25.523C17.8589 25.4715 14.6787 23.8502 13.588 21.6197C14.9152 21.7484 16.1111 21.7484 17.4778 21.5168C13.5354 20.9935 10.5787 18.7287 10.5787 15.9921V15.9235C11.7219 16.3438 13.0623 16.6012 14.4684 16.6355C13.2863 16.1222 12.3172 15.4258 11.6477 14.6085C10.9781 13.7912 10.6289 12.8784 10.6312 11.9515C10.6312 10.9049 11.0517 9.94411 11.8008 9.11197C16.0454 12.5263 22.4189 14.7568 29.5676 14.997C28.3455 11.1794 32.7215 8.08253 37.978 8.08253C40.4617 8.08253 42.6957 8.76025 44.2726 9.85832C46.2175 9.61811 48.0836 9.14629 49.7393 8.50288C49.0954 9.80685 47.7419 10.9049 45.9547 11.5998C47.6893 11.4797 49.3714 11.1623 50.9221 10.7248C49.7525 11.8486 48.2807 12.8437 46.5986 13.6415Z" fill="#FDB8B8"/>
</svg>
