<svg width="53" height="44" viewBox="0 0 53 44" fill="none" xmlns="http://www.w3.org/2000/svg">
<path d="M26.2697 10.6327C18.9072 10.6327 12.9687 15.6183 12.9687 21.7993C12.9687 27.9803 18.9072 32.9659 26.2697 32.9659C33.6321 32.9659 39.5707 27.9803 39.5707 21.7993C39.5707 15.6183 33.6321 10.6327 26.2697 10.6327ZM26.2697 29.0591C21.5119 29.0591 17.6223 25.8034 17.6223 21.7993C17.6223 17.7953 21.5003 14.5396 26.2697 14.5396C31.039 14.5396 34.9171 17.7953 34.9171 21.7993C34.9171 25.8034 31.0275 29.0591 26.2697 29.0591ZM43.2172 10.1759C43.2172 11.624 41.828 12.7805 40.1147 12.7805C38.3899 12.7805 37.0123 11.6143 37.0123 10.1759C37.0123 8.73758 38.4015 7.57135 40.1147 7.57135C41.828 7.57135 43.2172 8.73758 43.2172 10.1759ZM52.0266 12.8194C51.8298 9.33041 50.8806 6.23991 47.836 3.69365C44.8031 1.14738 41.1219 0.350462 36.966 0.175528C32.6829 -0.0285615 19.8449 -0.0285615 15.5617 0.175528C11.4175 0.340744 7.73626 1.13767 4.69174 3.68393C1.64721 6.23019 0.709543 9.32069 0.501172 12.8097C0.258073 16.4055 0.258073 27.1834 0.501172 30.7793C0.697966 34.2682 1.64721 37.3587 4.69174 39.905C7.73626 42.4512 11.4059 43.2482 15.5617 43.4231C19.8449 43.6272 32.6829 43.6272 36.966 43.4231C41.1219 43.2579 44.8031 42.461 47.836 39.905C50.869 37.3587 51.8182 34.2682 52.0266 30.7793C52.2697 27.1834 52.2697 16.4152 52.0266 12.8194ZM46.4932 34.6375C45.5903 36.5424 43.8423 38.0099 41.5618 38.7776C38.1468 39.9147 30.0435 39.6523 26.2697 39.6523C22.4959 39.6523 14.381 39.905 10.9776 38.7776C8.70866 38.0196 6.96066 36.5521 6.04615 34.6375C4.69174 31.7706 5.00429 24.9676 5.00429 21.7993C5.00429 18.6311 4.70331 11.8184 6.04615 8.9611C6.94909 7.05627 8.69708 5.58876 10.9776 4.821C14.3925 3.68393 22.4959 3.94633 26.2697 3.94633C30.0435 3.94633 38.1584 3.69365 41.5618 4.821C43.8307 5.57905 45.5787 7.04655 46.4932 8.9611C47.8476 11.8281 47.5351 18.6311 47.5351 21.7993C47.5351 24.9676 47.8476 31.7803 46.4932 34.6375Z" fill="#FBC4C4"/>
</svg>
