<svg width="42" height="36" viewBox="0 0 42 36" fill="none" xmlns="http://www.w3.org/2000/svg">
<path d="M36.5579 22.138H15.7895L16.2532 24.3307H35.2698C36.3609 24.3307 37.1696 25.3106 36.9278 26.3397L36.5369 28.0032C37.8611 28.6249 38.7742 29.9377 38.7742 31.457C38.7742 33.595 36.9663 35.3247 34.7484 35.2938C32.6355 35.2644 30.8979 33.6061 30.8408 31.563C30.8097 30.447 31.2719 29.4355 32.0313 28.7161H17.1784C17.9136 29.4127 18.3703 30.383 18.3703 31.457C18.3703 33.6369 16.4909 35.3923 14.2137 35.29C12.1918 35.1992 10.5473 33.6191 10.4411 31.664C10.359 30.1542 11.1804 28.8234 12.4284 28.1292L7.45161 4.59635H2.50062C1.56154 4.59635 0.800293 3.86008 0.800293 2.95182V1.85547C0.800293 0.947207 1.56154 0.210938 2.50062 0.210938H9.76447C10.5722 0.210938 11.2684 0.760553 11.4303 1.52588L12.0797 4.59635H39.907C40.9982 4.59635 41.8069 5.57629 41.5651 6.60535L38.2159 20.8579C38.04 21.6067 37.3518 22.138 36.5579 22.138ZM29.7058 11.7226H26.3052V8.98176C26.3052 8.37624 25.7977 7.88541 25.1716 7.88541H24.0381C23.412 7.88541 22.9045 8.37624 22.9045 8.98176V11.7226H19.5039C18.8778 11.7226 18.3703 12.2135 18.3703 12.819V13.9154C18.3703 14.5209 18.8778 15.0117 19.5039 15.0117H22.9045V17.7526C22.9045 18.3581 23.412 18.8489 24.0381 18.8489H25.1716C25.7977 18.8489 26.3052 18.3581 26.3052 17.7526V15.0117H29.7058C30.3319 15.0117 30.8394 14.5209 30.8394 13.9154V12.819C30.8394 12.2135 30.3319 11.7226 29.7058 11.7226Z" fill="#D61818"/>
</svg>
