<svg width="60" height="39" viewBox="0 0 60 39" fill="none" xmlns="http://www.w3.org/2000/svg">
<path d="M53.0246 0.0332031H6.76772C3.28531 0.0332031 0.459961 1.87762 0.459961 4.15098V34.348C0.459961 36.6213 3.28531 38.4658 6.76772 38.4658H53.0246C56.507 38.4658 59.3324 36.6213 59.3324 34.348V4.15098C59.3324 1.87762 56.507 0.0332031 53.0246 0.0332031ZM46.5986 13.6562C46.6249 13.8964 46.6249 14.1452 46.6249 14.3854C46.6249 21.8231 37.9517 30.3932 22.1035 30.3932C17.215 30.3932 12.6812 29.4667 8.87031 27.8711C9.56679 27.9225 10.237 27.9397 10.9466 27.9397C14.981 27.9397 18.6868 27.0475 21.6435 25.5377C17.8589 25.4862 14.6787 23.8648 13.588 21.6344C14.9152 21.763 16.1111 21.763 17.4778 21.5314C13.5354 21.0081 10.5787 18.7433 10.5787 16.0067V15.9381C11.7219 16.3585 13.0623 16.6158 14.4684 16.6501C13.2863 16.1368 12.3172 15.4404 11.6477 14.6231C10.9781 13.8058 10.6289 12.893 10.6312 11.9662C10.6312 10.9196 11.0517 9.95875 11.8008 9.12662C16.0454 12.5409 22.4189 14.7714 29.5676 15.0116C28.3455 11.1941 32.7215 8.09718 37.978 8.09718C40.4617 8.09718 42.6957 8.77489 44.2726 9.87297C46.2175 9.63276 48.0836 9.16093 49.7393 8.51753C49.0954 9.82149 47.7419 10.9196 45.9547 11.6144C47.6893 11.4943 49.3714 11.1769 50.9221 10.7394C49.7525 11.8632 48.2807 12.8584 46.5986 13.6562Z" fill="#FDB8B8"/>
</svg>
