<svg width="59" height="38" viewBox="0 0 59 38" fill="none" xmlns="http://www.w3.org/2000/svg">
<path d="M51.91 0.0598145H6.53299C3.11682 0.0598145 0.345215 1.86653 0.345215 4.09341V33.6731C0.345215 35.9 3.11682 37.7067 6.53299 37.7067H51.91C55.3262 37.7067 58.0978 35.9 58.0978 33.6731V4.09341C58.0978 1.86653 55.3262 0.0598145 51.91 0.0598145ZM45.6062 13.4043C45.632 13.6396 45.632 13.8833 45.632 14.1186C45.632 21.4043 37.1238 29.7992 21.577 29.7992C16.7815 29.7992 12.334 28.8916 8.59558 27.3286C9.27881 27.379 9.93627 27.3958 10.6324 27.3958C14.59 27.3958 18.2253 26.5219 21.1258 25.0429C17.4132 24.9925 14.2935 23.4042 13.2235 21.2194C14.5255 21.3454 15.6986 21.3454 17.0393 21.1185C13.172 20.6059 10.2714 18.3875 10.2714 15.7068V15.6396C11.393 16.0513 12.7079 16.3034 14.0872 16.337C12.9276 15.8342 11.9769 15.1521 11.3201 14.3515C10.6633 13.5509 10.3207 12.6567 10.323 11.7488C10.323 10.7236 10.7355 9.78246 11.4703 8.96734C15.6342 12.3119 21.8864 14.4967 28.8992 14.732C27.7003 10.9925 31.9931 7.95894 37.1496 7.95894C39.586 7.95894 41.7775 8.6228 43.3245 9.69842C45.2324 9.46313 47.0629 9.00095 48.6872 8.3707C48.0555 9.648 46.7277 10.7236 44.9745 11.4043C46.6762 11.2867 48.3263 10.9757 49.8474 10.5472C48.7001 11.648 47.2563 12.6228 45.6062 13.4043Z" fill="#FDB8B8"/>
</svg>
