<svg width="53" height="44" viewBox="0 0 53 44" fill="none" xmlns="http://www.w3.org/2000/svg">
<path d="M26.2697 10.6434C18.9072 10.6434 12.9687 15.6291 12.9687 21.8101C12.9687 27.9911 18.9072 32.9767 26.2697 32.9767C33.6321 32.9767 39.5707 27.9911 39.5707 21.8101C39.5707 15.6291 33.6321 10.6434 26.2697 10.6434ZM26.2697 29.0698C21.5119 29.0698 17.6223 25.8141 17.6223 21.8101C17.6223 17.806 21.5003 14.5503 26.2697 14.5503C31.039 14.5503 34.9171 17.806 34.9171 21.8101C34.9171 25.8141 31.0275 29.0698 26.2697 29.0698ZM43.2172 10.1867C43.2172 11.6347 41.828 12.7912 40.1147 12.7912C38.3899 12.7912 37.0123 11.625 37.0123 10.1867C37.0123 8.74832 38.4015 7.58209 40.1147 7.58209C41.828 7.58209 43.2172 8.74832 43.2172 10.1867ZM52.0266 12.8301C51.8298 9.34115 50.8806 6.25065 47.836 3.70439C44.8031 1.15813 41.1219 0.361204 36.966 0.18627C32.6829 -0.0178193 19.8449 -0.0178193 15.5617 0.18627C11.4175 0.351486 7.73626 1.14841 4.69174 3.69467C1.64721 6.24093 0.709543 9.33143 0.501172 12.8204C0.258073 16.4163 0.258073 27.1941 0.501172 30.79C0.697966 34.279 1.64721 37.3695 4.69174 39.9157C7.73626 42.462 11.4059 43.2589 15.5617 43.4338C19.8449 43.6379 32.6829 43.6379 36.966 43.4338C41.1219 43.2686 44.8031 42.4717 47.836 39.9157C50.869 37.3695 51.8182 34.279 52.0266 30.79C52.2697 27.1941 52.2697 16.426 52.0266 12.8301ZM46.4932 34.6483C45.5903 36.5531 43.8423 38.0206 41.5618 38.7884C38.1468 39.9254 30.0435 39.663 26.2697 39.663C22.4959 39.663 14.381 39.9157 10.9776 38.7884C8.70866 38.0303 6.96066 36.5628 6.04615 34.6483C4.69174 31.7813 5.00429 24.9783 5.00429 21.8101C5.00429 18.6418 4.70331 11.8291 6.04615 8.97185C6.94909 7.06701 8.69708 5.59951 10.9776 4.83174C14.3925 3.69467 22.4959 3.95707 26.2697 3.95707C30.0435 3.95707 38.1584 3.70439 41.5618 4.83174C43.8307 5.58979 45.5787 7.05729 46.4932 8.97185C47.8476 11.8388 47.5351 18.6418 47.5351 21.8101C47.5351 24.9783 47.8476 31.791 46.4932 34.6483Z" fill="#FBC4C4"/>
</svg>
