<svg width="59" height="39" viewBox="0 0 59 39" fill="none" xmlns="http://www.w3.org/2000/svg">
<path d="M52.4947 0.724243H6.58444C3.12812 0.724243 0.323944 2.5341 0.323944 4.76485V34.396C0.323944 36.6268 3.12812 38.4366 6.58444 38.4366H52.4947C55.951 38.4366 58.7552 36.6268 58.7552 34.396V4.76485C58.7552 2.5341 55.951 0.724243 52.4947 0.724243ZM46.1168 14.0919C46.1429 14.3276 46.1429 14.5718 46.1429 14.8075C46.1429 22.1058 37.5348 30.5153 21.8053 30.5153C16.9534 30.5153 12.4537 29.6062 8.67127 28.0405C9.36253 28.091 10.0277 28.1078 10.732 28.1078C14.7361 28.1078 18.4142 27.2323 21.3488 25.7508C17.5925 25.7003 14.4361 24.1093 13.3536 21.9206C14.6709 22.0469 15.8578 22.0469 17.2142 21.8196C13.3014 21.3061 10.3668 19.0838 10.3668 16.3984V16.3311C11.5015 16.7436 12.8319 16.9961 14.2275 17.0298C13.0542 16.5261 12.0923 15.8428 11.4278 15.0408C10.7633 14.2388 10.4167 13.3431 10.419 12.4336C10.419 11.4066 10.8364 10.4638 11.5798 9.64726C15.7926 12.9976 22.1183 15.1863 29.2135 15.422C28.0005 11.676 32.3438 8.63711 37.5608 8.63711C40.0259 8.63711 42.2432 9.30212 43.8083 10.3796C45.7386 10.1439 47.5907 9.68093 49.2341 9.04959C48.595 10.3291 47.2516 11.4066 45.4778 12.0885C47.1994 11.9706 48.8689 11.6591 50.4079 11.2298C49.2471 12.3326 47.7863 13.3091 46.1168 14.0919Z" fill="#FDB8B8"/>
</svg>
