<svg width="53" height="44" viewBox="0 0 53 44" fill="none" xmlns="http://www.w3.org/2000/svg">
<path d="M26.5944 11.0795C19.1619 11.0795 13.1669 15.9197 13.1669 21.9204C13.1669 27.9211 19.1619 32.7613 26.5944 32.7613C34.0268 32.7613 40.0219 27.9211 40.0219 21.9204C40.0219 15.9197 34.0268 11.0795 26.5944 11.0795ZM26.5944 28.9684C21.7913 28.9684 17.8647 25.8077 17.8647 21.9204C17.8647 18.0332 21.7796 14.8724 26.5944 14.8724C31.4091 14.8724 35.324 18.0332 35.324 21.9204C35.324 25.8077 31.3974 28.9684 26.5944 28.9684ZM43.703 10.6361C43.703 12.0419 42.3007 13.1647 40.5711 13.1647C38.8299 13.1647 37.4392 12.0325 37.4392 10.6361C37.4392 9.2397 38.8416 8.10749 40.5711 8.10749C42.3007 8.10749 43.703 9.2397 43.703 10.6361ZM52.5963 13.2024C52.3976 9.81524 51.4393 6.81489 48.3659 4.3429C45.3041 1.87092 41.5878 1.09724 37.3925 0.927411C33.0686 0.729275 20.1085 0.729275 15.7846 0.927411C11.6009 1.08781 7.88469 1.86148 4.81121 4.33347C1.73773 6.80546 0.791139 9.8058 0.580787 13.193C0.335376 16.684 0.335376 27.1474 0.580787 30.6384C0.779453 34.0256 1.73773 37.026 4.81121 39.4979C7.88469 41.9699 11.5892 42.7436 15.7846 42.9134C20.1085 43.1116 33.0686 43.1116 37.3925 42.9134C41.5878 42.753 45.3041 41.9794 48.3659 39.4979C51.4277 37.026 52.3859 34.0256 52.5963 30.6384C52.8417 27.1474 52.8417 16.6934 52.5963 13.2024ZM47.0103 34.3841C46.0987 36.2334 44.3341 37.6581 42.0319 38.4035C38.5845 39.5074 30.4041 39.2526 26.5944 39.2526C22.7847 39.2526 14.5926 39.4979 11.1568 38.4035C8.86634 37.6675 7.10171 36.2429 6.1785 34.3841C4.81121 31.6008 5.12674 24.9963 5.12674 21.9204C5.12674 18.8446 4.8229 12.2306 6.1785 9.45671C7.09003 7.60744 8.85465 6.18274 11.1568 5.43737C14.6043 4.33347 22.7847 4.58821 26.5944 4.58821C30.4041 4.58821 38.5962 4.3429 42.0319 5.43737C44.3224 6.17331 46.087 7.598 47.0103 9.45671C48.3775 12.2401 48.062 18.8446 48.062 21.9204C48.062 24.9963 48.3775 31.6102 47.0103 34.3841Z" fill="#FBC4C4"/>
</svg>
