<svg width="60" height="39" viewBox="0 0 60 39" fill="none" xmlns="http://www.w3.org/2000/svg">
<path d="M53.0246 0.0224609H6.76772C3.28531 0.0224609 0.459961 1.86688 0.459961 4.14023V34.3372C0.459961 36.6106 3.28531 38.455 6.76772 38.455H53.0246C56.507 38.455 59.3324 36.6106 59.3324 34.3372V4.14023C59.3324 1.86688 56.507 0.0224609 53.0246 0.0224609ZM46.5986 13.6454C46.6249 13.8856 46.6249 14.1344 46.6249 14.3746C46.6249 21.8123 37.9517 30.3825 22.1035 30.3825C17.215 30.3825 12.6812 29.456 8.87031 27.8603C9.56679 27.9118 10.237 27.929 10.9466 27.929C14.981 27.929 18.6868 27.0368 21.6435 25.5269C17.8589 25.4754 14.6787 23.8541 13.588 21.6236C14.9152 21.7523 16.1111 21.7523 17.4778 21.5207C13.5354 20.9974 10.5787 18.7326 10.5787 15.996V15.9274C11.7219 16.3477 13.0623 16.6051 14.4684 16.6394C13.2863 16.1261 12.3172 15.4297 11.6477 14.6124C10.9781 13.7951 10.6289 12.8823 10.6312 11.9554C10.6312 10.9088 11.0517 9.94801 11.8008 9.11588C16.0454 12.5302 22.4189 14.7607 29.5676 15.0009C28.3455 11.1833 32.7215 8.08643 37.978 8.08643C40.4617 8.08643 42.6957 8.76415 44.2726 9.86222C46.2175 9.62202 48.0836 9.15019 49.7393 8.50679C49.0954 9.81075 47.7419 10.9088 45.9547 11.6037C47.6893 11.4836 49.3714 11.1662 50.9221 10.7287C49.7525 11.8525 48.2807 12.8476 46.5986 13.6454Z" fill="#FDB8B8"/>
</svg>
