<svg width="60" height="39" viewBox="0 0 60 39" fill="none" xmlns="http://www.w3.org/2000/svg">
<path d="M53.082 0.778809H6.38509C2.86956 0.778809 0.017334 2.56943 0.017334 4.77647V34.0926C0.017334 36.2997 2.86956 38.0903 6.38509 38.0903H53.082C56.5975 38.0903 59.4497 36.2997 59.4497 34.0926V4.77647C59.4497 2.56943 56.5975 0.778809 53.082 0.778809ZM46.5948 14.0044C46.6213 14.2376 46.6213 14.4791 46.6213 14.7123C46.6213 21.9331 37.8657 30.2532 21.8667 30.2532C16.9317 30.2532 12.3549 29.3537 8.50767 27.8046C9.21078 27.8546 9.88735 27.8713 10.6037 27.8713C14.6764 27.8713 18.4175 27.0051 21.4024 25.5393C17.5817 25.4893 14.3713 23.9152 13.2702 21.7498C14.6101 21.8748 15.8173 21.8748 17.197 21.6499C13.2172 21.1419 10.2323 18.9432 10.2323 16.2864V16.2198C11.3864 16.6279 12.7396 16.8777 14.1591 16.911C12.9657 16.4127 11.9874 15.7366 11.3114 14.9431C10.6355 14.1497 10.283 13.2635 10.2853 12.3637C10.2853 11.3476 10.7099 10.4148 11.466 9.60697C15.751 12.9217 22.1851 15.0871 29.4019 15.3203C28.1681 11.6141 32.5857 8.60755 37.8922 8.60755C40.3995 8.60755 42.6548 9.2655 44.2467 10.3315C46.2101 10.0983 48.0939 9.64028 49.7654 9.01565C49.1154 10.2816 47.749 11.3476 45.9448 12.0222C47.6959 11.9056 49.394 11.5975 50.9594 11.1727C49.7787 12.2637 48.2929 13.2298 46.5948 14.0044Z" fill="#FDB8B8"/>
</svg>
