<svg width="53" height="44" viewBox="0 0 53 44" fill="none" xmlns="http://www.w3.org/2000/svg">
<path d="M26.2697 10.6288C18.9072 10.6288 12.9687 15.6144 12.9687 21.7954C12.9687 27.9764 18.9072 32.962 26.2697 32.962C33.6321 32.962 39.5707 27.9764 39.5707 21.7954C39.5707 15.6144 33.6321 10.6288 26.2697 10.6288ZM26.2697 29.0552C21.5119 29.0552 17.6223 25.7995 17.6223 21.7954C17.6223 17.7914 21.5003 14.5356 26.2697 14.5356C31.039 14.5356 34.9171 17.7914 34.9171 21.7954C34.9171 25.7995 31.0275 29.0552 26.2697 29.0552ZM43.2172 10.172C43.2172 11.6201 41.828 12.7766 40.1147 12.7766C38.3899 12.7766 37.0123 11.6104 37.0123 10.172C37.0123 8.73367 38.4015 7.56744 40.1147 7.56744C41.828 7.56744 43.2172 8.73367 43.2172 10.172ZM52.0266 12.8155C51.8298 9.3265 50.8806 6.236 47.836 3.68974C44.8031 1.14348 41.1219 0.346556 36.966 0.171622C32.6829 -0.0324677 19.8449 -0.0324677 15.5617 0.171622C11.4175 0.336837 7.73626 1.13376 4.69174 3.68002C1.64721 6.22628 0.709543 9.31678 0.501172 12.8057C0.258073 16.4016 0.258073 27.1795 0.501172 30.7754C0.697966 34.2643 1.64721 37.3548 4.69174 39.9011C7.73626 42.4473 11.4059 43.2443 15.5617 43.4192C19.8449 43.6233 32.6829 43.6233 36.966 43.4192C41.1219 43.254 44.8031 42.4571 47.836 39.9011C50.869 37.3548 51.8182 34.2643 52.0266 30.7754C52.2697 27.1795 52.2697 16.4113 52.0266 12.8155ZM46.4932 34.6336C45.5903 36.5385 43.8423 38.006 41.5618 38.7737C38.1468 39.9108 30.0435 39.6484 26.2697 39.6484C22.4959 39.6484 14.381 39.9011 10.9776 38.7737C8.70866 38.0157 6.96066 36.5482 6.04615 34.6336C4.69174 31.7666 5.00429 24.9637 5.00429 21.7954C5.00429 18.6272 4.70331 11.8145 6.04615 8.9572C6.94909 7.05236 8.69708 5.58486 10.9776 4.81709C14.3925 3.68002 22.4959 3.94242 26.2697 3.94242C30.0435 3.94242 38.1584 3.68974 41.5618 4.81709C43.8307 5.57514 45.5787 7.04264 46.4932 8.9572C47.8476 11.8242 47.5351 18.6272 47.5351 21.7954C47.5351 24.9637 47.8476 31.7764 46.4932 34.6336Z" fill="#FBC4C4"/>
</svg>
