<svg width="53" height="44" viewBox="0 0 53 44" fill="none" xmlns="http://www.w3.org/2000/svg">
<path d="M26.7413 11.1356C19.4341 11.1356 13.54 16.0278 13.54 22.093C13.54 28.1582 19.4341 33.0504 26.7413 33.0504C34.0486 33.0504 39.9426 28.1582 39.9426 22.093C39.9426 16.0278 34.0486 11.1356 26.7413 11.1356ZM26.7413 29.2167C22.0192 29.2167 18.1587 26.022 18.1587 22.093C18.1587 18.164 22.0077 14.9693 26.7413 14.9693C31.4749 14.9693 35.3239 18.164 35.3239 22.093C35.3239 26.022 31.4635 29.2167 26.7413 29.2167ZM43.5618 10.6874C43.5618 12.1084 42.1831 13.2432 40.4826 13.2432C38.7707 13.2432 37.4035 12.0988 37.4035 10.6874C37.4035 9.27604 38.7822 8.13167 40.4826 8.13167C42.1831 8.13167 43.5618 9.27604 43.5618 10.6874ZM52.3052 13.2813C52.1099 9.85777 51.1678 6.82518 48.1461 4.32663C45.1358 1.82809 41.4822 1.0461 37.3575 0.874442C33.1064 0.674177 20.3647 0.674177 16.1136 0.874442C12.0004 1.03656 8.34679 1.81855 5.32507 4.3171C2.30336 6.81564 1.37272 9.84823 1.16591 13.2718C0.924636 16.8003 0.924636 27.3762 1.16591 30.9047C1.36123 34.3283 2.30336 37.3609 5.32507 39.8594C8.34679 42.3579 11.9889 43.1399 16.1136 43.3116C20.3647 43.5119 33.1064 43.5119 37.3575 43.3116C41.4822 43.1495 45.1358 42.3675 48.1461 39.8594C51.1563 37.3609 52.0984 34.3283 52.3052 30.9047C52.5465 27.3762 52.5465 16.8098 52.3052 13.2813ZM46.8133 34.6907C45.9171 36.5598 44.1822 37.9998 41.9188 38.7532C38.5294 39.8689 30.4869 39.6115 26.7413 39.6115C22.9958 39.6115 14.9417 39.8594 11.5638 38.7532C9.31189 38.0093 7.577 36.5693 6.66933 34.6907C5.32507 31.8774 5.63529 25.2019 5.63529 22.093C5.63529 18.9841 5.33656 12.2991 6.66933 9.49538C7.56551 7.62624 9.30041 6.18624 11.5638 5.43286C14.9532 4.3171 22.9958 4.57458 26.7413 4.57458C30.4869 4.57458 38.5409 4.32663 41.9188 5.43286C44.1707 6.1767 45.9056 7.6167 46.8133 9.49538C48.1575 12.3086 47.8473 18.9841 47.8473 22.093C47.8473 25.2019 48.1575 31.8869 46.8133 34.6907Z" fill="#FBC4C4"/>
</svg>
