<svg width="52" height="43" viewBox="0 0 52 43" fill="none" xmlns="http://www.w3.org/2000/svg">
<path d="M25.6208 10.4531C18.3984 10.4531 12.5728 15.3368 12.5728 21.3915C12.5728 27.4461 18.3984 32.3298 25.6208 32.3298C32.8432 32.3298 38.6688 27.4461 38.6688 21.3915C38.6688 15.3368 32.8432 10.4531 25.6208 10.4531ZM25.6208 28.5028C20.9535 28.5028 17.1379 25.3137 17.1379 21.3915C17.1379 17.4693 20.9421 14.2801 25.6208 14.2801C30.2994 14.2801 34.1037 17.4693 34.1037 21.3915C34.1037 25.3137 30.2881 28.5028 25.6208 28.5028ZM42.2459 10.0057C42.2459 11.4242 40.8832 12.557 39.2025 12.557C37.5105 12.557 36.1591 11.4147 36.1591 10.0057C36.1591 8.59677 37.5218 7.45438 39.2025 7.45438C40.8832 7.45438 42.2459 8.59677 42.2459 10.0057ZM50.8878 12.5951C50.6947 9.17748 49.7636 6.15016 46.7769 3.65595C43.8017 1.16174 40.1905 0.381111 36.1137 0.209753C31.912 0.00983506 19.3182 0.00983506 15.1165 0.209753C11.0511 0.371591 7.4399 1.15222 4.45329 3.64643C1.46667 6.14064 0.546838 9.16796 0.342431 12.5856C0.103955 16.108 0.103955 26.6655 0.342431 30.1879C0.535482 33.6055 1.46667 36.6328 4.45329 39.127C7.4399 41.6212 11.0397 42.4019 15.1165 42.5732C19.3182 42.7732 31.912 42.7732 36.1137 42.5732C40.1905 42.4114 43.8017 41.6308 46.7769 39.127C49.7522 36.6328 50.6834 33.6055 50.8878 30.1879C51.1263 26.6655 51.1263 16.1175 50.8878 12.5951ZM45.4596 33.9673C44.5739 35.8332 42.8591 37.2707 40.622 38.0227C37.272 39.1366 29.3228 38.8795 25.6208 38.8795C21.9187 38.8795 13.9582 39.127 10.6196 38.0227C8.3938 37.2802 6.67905 35.8427 5.78193 33.9673C4.45329 31.1589 4.7599 24.495 4.7599 21.3915C4.7599 18.288 4.46464 11.6146 5.78193 8.81573C6.6677 6.94983 8.38245 5.51233 10.6196 4.76026C13.9696 3.64643 21.9187 3.90347 25.6208 3.90347C29.3228 3.90347 37.2834 3.65595 40.622 4.76026C42.8478 5.50281 44.5625 6.94031 45.4596 8.81573C46.7883 11.6241 46.4817 18.288 46.4817 21.3915C46.4817 24.495 46.7883 31.1684 45.4596 33.9673Z" fill="#FBC4C4"/>
</svg>
